<?xml version="1.0" standalone="no"?>
<!DOCTYPE svg PUBLIC "-//W3C//DTD SVG 20010904//EN"
 "http://www.w3.org/TR/2001/REC-SVG-20010904/DTD/svg10.dtd">
<svg version="1.0" xmlns="http://www.w3.org/2000/svg"
 width="430.000000pt" height="430.000000pt" viewBox="0 0 430.000000 430.000000"
 preserveAspectRatio="xMidYMid meet">
<metadata>
Created by potrace 1.14, written by Peter Selinger 2001-2017
</metadata>
<g transform="translate(0.000000,430.000000) scale(0.100000,-0.100000)"
fill="#000000" stroke="none">
<path d="M2375 2933 c-4 -10 -36 -94 -72 -188 -35 -93 -75 -197 -88 -230 -21
-53 -340 -890 -402 -1055 -14 -36 -28 -77 -33 -91 l-8 -27 132 2 131 1 56 145
c30 80 58 152 62 160 3 8 15 42 26 75 12 33 26 69 31 80 4 11 23 58 40 105 17
47 35 94 40 105 9 21 143 372 166 435 7 19 51 136 98 260 47 124 86 228 86
233 0 4 -58 7 -129 7 -113 0 -130 -2 -136 -17z"/>
<path d="M3539 2782 c-4 -23 -3 -1272 1 -1273 26 -7 233 -2 237 4 3 5 5 119 4
253 l-2 244 48 1 c26 0 128 1 226 1 l177 -1 0 135 0 134 -225 0 -225 0 0 120
0 121 133 -1 c72 -1 187 -1 255 -1 l122 1 0 134 0 135 -375 0 c-206 0 -376 -4
-376 -7z"/>
<path d="M332 2768 c-7 -7 -12 -15 -12 -19 0 -4 -72 -179 -160 -388 l-160
-380 0 -236 c0 -129 3 -235 8 -236 4 0 17 -2 29 -3 32 -4 36 1 70 89 l30 80
203 0 202 0 34 -85 34 -85 130 0 c71 1 131 3 133 5 4 4 -130 326 -251 610 -6
14 -19 43 -28 65 -9 22 -22 54 -29 70 -8 17 -54 127 -104 245 -49 118 -96 230
-103 247 -11 26 -17 30 -26 21z m23 -600 c4 -13 27 -74 51 -137 25 -62 43
-115 41 -117 -5 -5 -208 -7 -213 -2 -4 4 12 50 36 103 5 11 21 55 36 98 28 80
38 92 49 55z"/>
</g>
</svg>
